<?xml version="1.0" standalone="no"?>
<!DOCTYPE svg PUBLIC "-//W3C//DTD SVG 1.1//EN" "http://www.w3.org/Graphics/SVG/1.1/DTD/svg11.dtd">
<!--Generator: Xara Designer (www.xara.com), SVG filter version: 6.6.0.1-->
<svg fill="none" fill-rule="evenodd" stroke="black" stroke-width="0.501" stroke-linejoin="bevel" stroke-miterlimit="10" font-family="Times New Roman" font-size="16" style="font-variant-ligatures:none" xmlns:xlink="http://www.w3.org/1999/xlink" xmlns="http://www.w3.org/2000/svg" version="1.1" overflow="visible" width="266.242pt" height="266.242pt" viewBox="1064.37 -621.176 266.242 266.242">
 <defs>
	</defs>
 <g id="Layer 1" transform="scale(1 -1)">
  <path d="M 1185.2,620.646 C 1151.46,617.522 1120.18,601.636 1097.75,576.236 C 1075.29,550.835 1063.38,517.838 1064.43,483.97 C 1065.48,450.103 1079.39,417.904 1103.36,393.924 C 1127.32,369.961 1159.54,356.045 1193.4,354.998 C 1227.27,353.951 1260.27,365.861 1285.67,388.315 C 1311.07,410.751 1326.95,442.027 1330.08,475.77 C 1332.4,501.809 1327.04,527.938 1314.65,550.942 C 1302.27,573.964 1283.4,592.832 1260.38,605.222 C 1237.37,617.611 1211.24,622.972 1185.2,620.646 Z M 1269,517.962 L 1190.1,439.897 C 1187.72,437.589 1184.55,436.294 1181.25,436.294 C 1177.94,436.294 1174.77,437.589 1172.4,439.897 L 1125.9,484.308 C 1122.63,487.449 1121.29,492.1 1122.37,496.502 C 1123.45,500.904 1126.81,504.401 1131.17,505.661 C 1135.52,506.921 1140.22,505.768 1143.49,502.626 L 1181.03,466.611 L 1251.27,535.996 C 1254.52,539.049 1259.13,540.185 1263.41,538.96 C 1267.71,537.753 1271.04,534.363 1272.2,530.068 C 1273.37,525.772 1272.18,521.175 1269.09,517.962 Z" fill="#2095db" fill-rule="nonzero" stroke-linejoin="miter" stroke="none" stroke-width="0.568" marker-start="none" marker-end="none"/>
 </g>
</svg>
