<?xml version="1.0" standalone="no"?>
<!DOCTYPE svg PUBLIC "-//W3C//DTD SVG 1.1//EN" "http://www.w3.org/Graphics/SVG/1.1/DTD/svg11.dtd">
<!--Generator: Xara Designer (www.xara.com), SVG filter version: 6.6.0.1-->
<svg fill="none" fill-rule="evenodd" stroke="black" stroke-width="0.501" stroke-linejoin="bevel" stroke-miterlimit="10" font-family="Times New Roman" font-size="16" style="font-variant-ligatures:none" xmlns:xlink="http://www.w3.org/1999/xlink" xmlns="http://www.w3.org/2000/svg" version="1.1" overflow="visible" width="423.902pt" height="530.527pt" viewBox="132.048 -613.266 423.902 530.527">
 <defs>
	</defs>
 <g id="Layer 1" transform="scale(1 -1)">
  <path d="M 555.95,455.46 L 555.95,100.039 C 555.93,95.458 554.098,91.075 550.864,87.836 C 547.625,84.594 543.243,82.762 538.661,82.739 L 149.341,82.739 C 144.755,82.762 140.368,84.598 137.13,87.84 C 133.887,91.086 132.063,95.477 132.048,100.063 L 132.048,595.973 C 132.067,600.552 133.895,604.938 137.134,608.176 C 140.376,611.419 144.762,613.247 149.341,613.266 L 396.461,613.266 C 397.05,613.266 397.593,613.196 398.125,613.196 L 398.121,495.806 C 398.148,485.111 402.414,474.861 409.98,467.298 C 417.546,459.735 427.796,455.478 438.496,455.458 Z M 421.22,596.04 L 421.22,495.83 C 421.239,491.244 423.067,486.853 426.305,483.611 C 429.544,480.364 433.934,478.532 438.52,478.505 L 541.27,478.505 Z" fill="#2095db" stroke-linejoin="miter" stroke="none" stroke-width="1" marker-start="none" marker-end="none"/>
 </g>
</svg>
