<?xml version="1.0" encoding="utf-8"?>
<svg width="300px" height="300px" viewBox="0 0 300 300" version="1.1" xmlns:xlink="http://www.w3.org/1999/xlink" xmlns="http://www.w3.org/2000/svg">
  <defs>
    <linearGradient gradientUnits="userSpaceOnUse" x1="150" y1="0" x2="150" y2="300" id="gradient_1">
      <stop offset="0%" stop-color="#806A6A" />
      <stop offset="100%" stop-color="#665654" />
    </linearGradient>
    <linearGradient gradientUnits="userSpaceOnUse" x1="59.878353" y1="0" x2="59.878353" y2="184.73097" id="gradient_2">
      <stop offset="0%" stop-color="#F7B186" />
      <stop offset="100%" stop-color="#FFC299" />
    </linearGradient>
    <linearGradient gradientUnits="userSpaceOnUse" x1="70.25432" y1="0" x2="70.25432" y2="120.97999" id="gradient_3">
      <stop offset="0%" stop-color="#1D0024" />
      <stop offset="100%" stop-color="#100014" />
    </linearGradient>
    <linearGradient gradientUnits="userSpaceOnUse" x1="120" y1="0" x2="120" y2="101.30783" id="gradient_4">
      <stop offset="0%" stop-color="#1D0024" />
      <stop offset="100%" stop-color="#100014" />
    </linearGradient>
    <linearGradient gradientUnits="userSpaceOnUse" x1="12" y1="0" x2="12" y2="97" id="gradient_5">
      <stop offset="0%" stop-color="#806A6A" />
      <stop offset="100%" stop-color="#665654" />
    </linearGradient>
    <filter filterUnits="userSpaceOnUse" color-interpolation-filters="sRGB" id="filter_1">
      <feFlood flood-opacity="0" result="BackgroundImageFix" />
      <feColorMatrix in="SourceAlpha" type="matrix" values="0 0 0 0 0 0 0 0 0 0 0 0 0 0 0 0 0 0 127 0" />
      <feOffset dx="0" dy="7" />
      <feGaussianBlur stdDeviation="6" />
      <feColorMatrix type="matrix" values="0 0 0 0 0 0 0 0 0 0 0 0 0 0 0.14509805 0 0 0 0.039215688 0" />
      <feBlend mode="normal" in2="BackgroundImageFix" result="effect0_dropShadow" />
      <feBlend mode="normal" in="SourceGraphic" in2="effect0_dropShadow" result="shape" />
    </filter>
    <path d="M150 300C232.843 300 300 232.843 300 150C300 67.1573 232.843 0 150 0C67.1573 0 0 67.1573 0 150C0 232.843 67.1573 300 150 300Z" id="path_1" />
    <path d="M110 160.784C91.6667 174.117 73.3333 184.784 55 184.784C36.6667 184.784 18.3333 174.117 -1.45519e-11 160.784C15.1117 156.185 22.7767 149.319 22.9952 140.187C22.9907 138.559 22.9831 136.248 22.9724 131.906C22.9707 131.217 22.9689 130.511 22.9671 129.788C22.937 118.148 22.8879 102.792 22.8194 87.1879C8.48733 68.6112 13.7521 46.8319 18.2437 47.3751C23.7543 48.0415 71.4573 2.77385 80.6074 0.457669C89.7575 -1.85851 113 5.62491 117 26.5C121 47.3751 122.672 99.9927 107.5 121C103.183 126.978 96.3834 129.316 87.1026 128.015C87.0901 132.383 87.0638 134.835 87 139.784C87.1185 149.333 94.7852 156.189 110 160.784Z" id="path_2" />
    <path d="M19 5L24 97L0 97L5 5C5 5 9.66667 0 12 0C14.3333 0 19 5 19 5Z" id="path_3" />
    <path d="M20.1397 23.6919L4.41427 14.606L5 5C8.11111 1.66667 10.4444 0 12 0C13.5556 0 15.8889 1.66667 19 5L20.1397 23.6919L20.1397 23.6919Z" id="path_4" />
    <clipPath id="mask_1">
      <use xlink:href="#path_1" />
    </clipPath>
    <clipPath id="mask_2">
      <use xlink:href="#path_2" />
    </clipPath>
    <clipPath id="mask_3">
      <use xlink:href="#path_3" />
    </clipPath>
    <clipPath id="mask_4">
      <use xlink:href="#path_4" />
    </clipPath>
  </defs>
  <g id="User-07b">
    <path d="M150 300C232.843 300 300 232.843 300 150C300 67.1573 232.843 0 150 0C67.1573 0 0 67.1573 0 150C0 232.843 67.1573 300 150 300Z" id="Mask" fill="url(#gradient_1)" fill-rule="evenodd" stroke="none" />
    <g clip-path="url(#mask_1)">
      <g id="Group-10" transform="translate(69 33)">
        <g id="Group-11">
          <g id="Group-11" transform="matrix(-1 0 0 1 141 0)">
            <g id="Group-2">
              <g filter="url(#filter_1)">
                <g id="Group-14">
                  <g id="Path-48" transform="translate(5 16)">
                    <path d="M110 160.784C91.6667 174.117 73.3333 184.784 55 184.784C36.6667 184.784 18.3333 174.117 -1.45519e-11 160.784C15.1117 156.185 22.7767 149.319 22.9952 140.187C22.9907 138.559 22.9831 136.248 22.9724 131.906C22.9707 131.217 22.9689 130.511 22.9671 129.788C22.937 118.148 22.8879 102.792 22.8194 87.1879C8.48733 68.6112 13.7521 46.8319 18.2437 47.3751C23.7543 48.0415 71.4573 2.77385 80.6074 0.457669C89.7575 -1.85851 113 5.62491 117 26.5C121 47.3751 122.672 99.9927 107.5 121C103.183 126.978 96.3834 129.316 87.1026 128.015C87.0901 132.383 87.0638 134.835 87 139.784C87.1185 149.333 94.7852 156.189 110 160.784Z" id="Combined-Shape" fill="url(#gradient_2)" fill-rule="evenodd" stroke="none" />
                    <g clip-path="url(#mask_2)">
                      <path d="M87 128C65 125.5 51 116 51 116C51 116 67 136 87 140L87 128Z" id="Path-48" fill="#FC9F6A" fill-rule="evenodd" stroke="none" />
                    </g>
                  </g>
                  <path d="M20.5 103.5C13.6102 86.9295 -14 53.1834 9.79878 32.1834C17.7988 -6.81655 62 -2.5 91.5 6.5C111.327 12.5489 126.299 24.5 129.5 15.5C149.5 32.1834 139.484 48.5 126.299 53.1834C114.332 57.4338 94.0969 61.6834 59.6933 57.6834C53.5474 56.9689 54.8344 75.7914 51.55 77.8267C46.6234 80.8796 42.7988 61.6834 29.2912 67.4472C15.7835 73.211 23.7988 99.9369 38.2988 99.9369C43.2988 99.9369 45.7988 113.683 32.2988 120.183C22.5 125 24.9768 114.267 20.5 103.5Z" id="Path-22" fill="url(#gradient_3)" fill-rule="evenodd" stroke="none" />
                </g>
              </g>
            </g>
          </g>
        </g>
      </g>
      <g id="Group-23" transform="translate(30 191)">
        <path d="M225 49.3078C234.52 68.6646 240 113.308 240 113.308L0 113.308C0 113.308 5.48239 68.6596 15 49.3078C24.5176 29.956 80.0993 12.0068 80.0993 12.0068C110.813 24.0049 129.608 24.0024 159.871 12C159.871 12 215.48 29.951 225 49.3078Z" id="Combined-Shape" fill="url(#gradient_4)" fill-rule="evenodd" stroke="none" />
        <g id="Group-22" transform="translate(108 14)">
          <path d="M19 5L24 97L0 97L5 5C5 5 9.66667 0 12 0C14.3333 0 19 5 19 5Z" id="Mask" fill="url(#gradient_5)" fill-rule="evenodd" stroke="none" />
          <path d="M20.1397 23.6919L4.41427 14.606L5 5C8.11111 1.66667 10.4444 0 12 0C13.5556 0 15.8889 1.66667 19 5L20.1397 23.6919L20.1397 23.6919Z" id="Combined-Shape" fill="#645050" fill-rule="evenodd" stroke="none" />
        </g>
        <path d="M120 13.9913L130 32L161 13L152 0L120 11.8211L88 0L79 13L110 32L120 13.9913Z" id="Combined-Shape" fill="#FFFFFF" fill-rule="evenodd" stroke="none" />
      </g>
    </g>
  </g>
</svg>