<?xml version="1.0" standalone="no"?>
<!DOCTYPE svg PUBLIC "-//W3C//DTD SVG 1.1//EN" "http://www.w3.org/Graphics/SVG/1.1/DTD/svg11.dtd">
<!--Generator: Xara Designer (www.xara.com), SVG filter version: 6.6.0.1-->
<svg fill="none" fill-rule="evenodd" stroke="black" stroke-width="0.501" stroke-linejoin="bevel" stroke-miterlimit="10" font-family="Times New Roman" font-size="16" style="font-variant-ligatures:none" xmlns:xlink="http://www.w3.org/1999/xlink" xmlns="http://www.w3.org/2000/svg" version="1.1" overflow="visible" width="245pt" height="262.421pt" viewBox="1563.54 707.205 245 262.421">
 <defs>
	</defs>
 <g id="Layer 1" transform="scale(1 -1)">
  <g id="Group" fill="#2095db" fill-rule="nonzero" stroke-linejoin="miter" stroke="none" stroke-width="1">
   <path d="M 1791.04,-899.626 C 1786.4,-899.626 1781.94,-901.47 1778.66,-904.751 C 1775.38,-908.033 1773.54,-912.486 1773.54,-917.126 L 1773.54,-934.626 L 1598.54,-934.626 L 1598.54,-917.126 C 1598.54,-910.873 1595.2,-905.095 1589.79,-901.97 C 1584.37,-898.845 1577.7,-898.845 1572.29,-901.97 C 1566.88,-905.095 1563.54,-910.873 1563.54,-917.126 L 1563.54,-952.126 C 1563.54,-956.767 1565.38,-961.22 1568.66,-964.501 C 1571.94,-967.783 1576.4,-969.626 1581.04,-969.626 L 1791.04,-969.626 C 1795.68,-969.626 1800.13,-967.783 1803.41,-964.501 C 1806.69,-961.22 1808.54,-956.767 1808.54,-952.126 L 1808.54,-917.126 C 1808.54,-912.486 1806.69,-908.033 1803.41,-904.751 C 1800.13,-901.47 1795.68,-899.626 1791.04,-899.626 Z" marker-start="none" marker-end="none"/>
   <path d="M 1637.13,-798.216 L 1668.54,-766.892 L 1668.54,-882.132 C 1668.54,-888.386 1671.88,-894.163 1677.29,-897.288 C 1682.71,-900.413 1689.38,-900.413 1694.79,-897.288 C 1700.21,-894.163 1703.54,-888.386 1703.54,-882.132 L 1703.54,-766.892 L 1734.96,-798.216 C 1739.46,-802.076 1745.61,-803.388 1751.3,-801.709 C 1756.99,-800.025 1761.44,-795.576 1763.12,-789.889 C 1764.8,-784.201 1763.49,-778.049 1759.63,-773.545 L 1698.38,-712.295 C 1695.1,-709.033 1690.67,-707.205 1686.04,-707.205 C 1681.42,-707.205 1676.98,-709.033 1673.71,-712.295 L 1612.46,-773.545 C 1608.6,-778.049 1607.28,-784.201 1608.96,-789.889 C 1610.65,-795.576 1615.1,-800.026 1620.78,-801.709 C 1626.47,-803.388 1632.62,-802.076 1637.13,-798.216 Z" marker-start="none" marker-end="none"/>
  </g>
 </g>
</svg>
